<mxfile host="app.diagrams.net" modified="2021-01-05T20:17:14.601Z" agent="5.0 (Windows NT 10.0; Win64; x64) AppleWebKit/537.36 (KHTML, like Gecko) Chrome/87.0.4280.88 Safari/537.36" etag="ftzWIAYE3GmG2M05vCKV" version="14.1.8" type="github">
  <diagram id="C5RBs43oDa-KdzZeNtuy" name="Page-1">
    <mxGraphModel dx="1102" dy="582" grid="1" gridSize="10" guides="1" tooltips="1" connect="1" arrows="1" fold="1" page="1" pageScale="1" pageWidth="827" pageHeight="1169" math="0" shadow="0">
      <root>
        <mxCell id="WIyWlLk6GJQsqaUBKTNV-0" />
        <mxCell id="WIyWlLk6GJQsqaUBKTNV-1" parent="WIyWlLk6GJQsqaUBKTNV-0" />
        <mxCell id="eNYLCKC9HYvspmPGT7P6-0" value="MyApp(cookies)" style="rounded=1;whiteSpace=wrap;html=1;" vertex="1" parent="WIyWlLk6GJQsqaUBKTNV-1">
          <mxGeometry x="360" y="30" width="120" height="60" as="geometry" />
        </mxCell>
        <mxCell id="eNYLCKC9HYvspmPGT7P6-2" value="" style="endArrow=classic;html=1;" edge="1" parent="WIyWlLk6GJQsqaUBKTNV-1">
          <mxGeometry width="50" height="50" relative="1" as="geometry">
            <mxPoint x="419.71" y="90" as="sourcePoint" />
            <mxPoint x="420" y="120" as="targetPoint" />
          </mxGeometry>
        </mxCell>
        <mxCell id="eNYLCKC9HYvspmPGT7P6-3" value="SplashScreen" style="rounded=1;whiteSpace=wrap;html=1;" vertex="1" parent="WIyWlLk6GJQsqaUBKTNV-1">
          <mxGeometry x="368" y="120" width="104" height="40" as="geometry" />
        </mxCell>
        <mxCell id="eNYLCKC9HYvspmPGT7P6-5" value="SignIn" style="rounded=1;whiteSpace=wrap;html=1;" vertex="1" parent="WIyWlLk6GJQsqaUBKTNV-1">
          <mxGeometry x="368" y="190" width="104" height="40" as="geometry" />
        </mxCell>
        <mxCell id="eNYLCKC9HYvspmPGT7P6-6" value="" style="endArrow=classic;html=1;" edge="1" parent="WIyWlLk6GJQsqaUBKTNV-1">
          <mxGeometry width="50" height="50" relative="1" as="geometry">
            <mxPoint x="419.71000000000004" y="160" as="sourcePoint" />
            <mxPoint x="420" y="190" as="targetPoint" />
          </mxGeometry>
        </mxCell>
        <mxCell id="eNYLCKC9HYvspmPGT7P6-7" value="SignUp" style="rounded=1;whiteSpace=wrap;html=1;" vertex="1" parent="WIyWlLk6GJQsqaUBKTNV-1">
          <mxGeometry x="500" y="190" width="104" height="40" as="geometry" />
        </mxCell>
        <mxCell id="eNYLCKC9HYvspmPGT7P6-8" value="" style="endArrow=classic;html=1;exitX=1;exitY=0.5;exitDx=0;exitDy=0;" edge="1" parent="WIyWlLk6GJQsqaUBKTNV-1" source="eNYLCKC9HYvspmPGT7P6-5">
          <mxGeometry width="50" height="50" relative="1" as="geometry">
            <mxPoint x="490.00000000000006" y="200" as="sourcePoint" />
            <mxPoint x="500" y="210" as="targetPoint" />
          </mxGeometry>
        </mxCell>
        <mxCell id="eNYLCKC9HYvspmPGT7P6-9" value="" style="curved=1;endArrow=classic;html=1;exitX=0.5;exitY=0;exitDx=0;exitDy=0;entryX=1;entryY=0.5;entryDx=0;entryDy=0;" edge="1" parent="WIyWlLk6GJQsqaUBKTNV-1" source="eNYLCKC9HYvspmPGT7P6-7" target="eNYLCKC9HYvspmPGT7P6-3">
          <mxGeometry width="50" height="50" relative="1" as="geometry">
            <mxPoint x="340" y="270" as="sourcePoint" />
            <mxPoint x="390" y="220" as="targetPoint" />
            <Array as="points">
              <mxPoint x="580" y="130" />
            </Array>
          </mxGeometry>
        </mxCell>
        <mxCell id="eNYLCKC9HYvspmPGT7P6-10" value="LoginSuccess" style="rounded=1;whiteSpace=wrap;html=1;" vertex="1" parent="WIyWlLk6GJQsqaUBKTNV-1">
          <mxGeometry x="368" y="260" width="104" height="40" as="geometry" />
        </mxCell>
        <mxCell id="eNYLCKC9HYvspmPGT7P6-38" value="" style="edgeStyle=orthogonalEdgeStyle;rounded=0;orthogonalLoop=1;jettySize=auto;html=1;" edge="1" parent="WIyWlLk6GJQsqaUBKTNV-1" source="eNYLCKC9HYvspmPGT7P6-12" target="eNYLCKC9HYvspmPGT7P6-17">
          <mxGeometry relative="1" as="geometry" />
        </mxCell>
        <mxCell id="eNYLCKC9HYvspmPGT7P6-12" value="Home" style="rounded=1;whiteSpace=wrap;html=1;" vertex="1" parent="WIyWlLk6GJQsqaUBKTNV-1">
          <mxGeometry x="368" y="330" width="104" height="40" as="geometry" />
        </mxCell>
        <mxCell id="eNYLCKC9HYvspmPGT7P6-15" value="" style="endArrow=classic;html=1;" edge="1" parent="WIyWlLk6GJQsqaUBKTNV-1">
          <mxGeometry width="50" height="50" relative="1" as="geometry">
            <mxPoint x="419.71000000000004" y="300" as="sourcePoint" />
            <mxPoint x="420" y="330" as="targetPoint" />
          </mxGeometry>
        </mxCell>
        <mxCell id="eNYLCKC9HYvspmPGT7P6-16" value="" style="endArrow=classic;html=1;" edge="1" parent="WIyWlLk6GJQsqaUBKTNV-1">
          <mxGeometry width="50" height="50" relative="1" as="geometry">
            <mxPoint x="419.71000000000004" y="230" as="sourcePoint" />
            <mxPoint x="420" y="260" as="targetPoint" />
          </mxGeometry>
        </mxCell>
        <mxCell id="eNYLCKC9HYvspmPGT7P6-17" value="Cart" style="rounded=1;whiteSpace=wrap;html=1;" vertex="1" parent="WIyWlLk6GJQsqaUBKTNV-1">
          <mxGeometry x="500" y="330" width="104" height="40" as="geometry" />
        </mxCell>
        <mxCell id="eNYLCKC9HYvspmPGT7P6-20" value="" style="endArrow=classic;html=1;exitX=1;exitY=0.5;exitDx=0;exitDy=0;" edge="1" parent="WIyWlLk6GJQsqaUBKTNV-1">
          <mxGeometry width="50" height="50" relative="1" as="geometry">
            <mxPoint x="472" y="349.65999999999997" as="sourcePoint" />
            <mxPoint x="500" y="349.65999999999997" as="targetPoint" />
          </mxGeometry>
        </mxCell>
        <mxCell id="eNYLCKC9HYvspmPGT7P6-21" value="" style="endArrow=classic;html=1;exitX=0.5;exitY=1;exitDx=0;exitDy=0;entryX=0.5;entryY=0;entryDx=0;entryDy=0;" edge="1" parent="WIyWlLk6GJQsqaUBKTNV-1" source="eNYLCKC9HYvspmPGT7P6-12" target="eNYLCKC9HYvspmPGT7P6-22">
          <mxGeometry width="50" height="50" relative="1" as="geometry">
            <mxPoint x="500" y="380" as="sourcePoint" />
            <mxPoint x="370" y="400" as="targetPoint" />
          </mxGeometry>
        </mxCell>
        <mxCell id="eNYLCKC9HYvspmPGT7P6-22" value="Categories" style="rounded=1;whiteSpace=wrap;html=1;" vertex="1" parent="WIyWlLk6GJQsqaUBKTNV-1">
          <mxGeometry x="256" y="400" width="104" height="40" as="geometry" />
        </mxCell>
        <mxCell id="eNYLCKC9HYvspmPGT7P6-23" value="SpecialOffers" style="rounded=1;whiteSpace=wrap;html=1;" vertex="1" parent="WIyWlLk6GJQsqaUBKTNV-1">
          <mxGeometry x="368" y="400" width="104" height="40" as="geometry" />
        </mxCell>
        <mxCell id="eNYLCKC9HYvspmPGT7P6-24" value="Popular" style="rounded=1;whiteSpace=wrap;html=1;" vertex="1" parent="WIyWlLk6GJQsqaUBKTNV-1">
          <mxGeometry x="480" y="400" width="104" height="40" as="geometry" />
        </mxCell>
        <mxCell id="eNYLCKC9HYvspmPGT7P6-26" value="" style="endArrow=classic;html=1;" edge="1" parent="WIyWlLk6GJQsqaUBKTNV-1">
          <mxGeometry width="50" height="50" relative="1" as="geometry">
            <mxPoint x="419.66" y="370" as="sourcePoint" />
            <mxPoint x="419.95" y="400" as="targetPoint" />
          </mxGeometry>
        </mxCell>
        <mxCell id="eNYLCKC9HYvspmPGT7P6-27" value="" style="endArrow=classic;html=1;entryX=0.5;entryY=0;entryDx=0;entryDy=0;" edge="1" parent="WIyWlLk6GJQsqaUBKTNV-1" target="eNYLCKC9HYvspmPGT7P6-24">
          <mxGeometry width="50" height="50" relative="1" as="geometry">
            <mxPoint x="420" y="370" as="sourcePoint" />
            <mxPoint x="440" y="350" as="targetPoint" />
          </mxGeometry>
        </mxCell>
        <mxCell id="eNYLCKC9HYvspmPGT7P6-28" value="" style="endArrow=classic;html=1;" edge="1" parent="WIyWlLk6GJQsqaUBKTNV-1">
          <mxGeometry width="50" height="50" relative="1" as="geometry">
            <mxPoint x="531.6600000000001" y="440" as="sourcePoint" />
            <mxPoint x="531.95" y="470" as="targetPoint" />
          </mxGeometry>
        </mxCell>
        <mxCell id="eNYLCKC9HYvspmPGT7P6-29" value="DetailsScreen" style="rounded=1;whiteSpace=wrap;html=1;" vertex="1" parent="WIyWlLk6GJQsqaUBKTNV-1">
          <mxGeometry x="480" y="470" width="104" height="40" as="geometry" />
        </mxCell>
        <object label="" id="eNYLCKC9HYvspmPGT7P6-30">
          <mxCell style="curved=1;endArrow=classic;html=1;exitX=1;exitY=0.5;exitDx=0;exitDy=0;entryX=1;entryY=0.5;entryDx=0;entryDy=0;" edge="1" parent="WIyWlLk6GJQsqaUBKTNV-1" source="eNYLCKC9HYvspmPGT7P6-29">
            <mxGeometry width="50" height="50" relative="1" as="geometry">
              <mxPoint x="684" y="400" as="sourcePoint" />
              <mxPoint x="604" y="350" as="targetPoint" />
              <Array as="points">
                <mxPoint x="712" y="340" />
              </Array>
            </mxGeometry>
          </mxCell>
        </object>
        <mxCell id="eNYLCKC9HYvspmPGT7P6-31" value="add to Cart" style="edgeLabel;html=1;align=center;verticalAlign=middle;resizable=0;points=[];rotation=-60;" vertex="1" connectable="0" parent="eNYLCKC9HYvspmPGT7P6-30">
          <mxGeometry x="-0.4205" y="6" relative="1" as="geometry">
            <mxPoint x="-6.740000000000002" y="-8.96" as="offset" />
          </mxGeometry>
        </mxCell>
        <mxCell id="eNYLCKC9HYvspmPGT7P6-32" value="bottomNavBar" style="rounded=1;whiteSpace=wrap;html=1;" vertex="1" parent="WIyWlLk6GJQsqaUBKTNV-1">
          <mxGeometry x="230" y="330" width="104" height="40" as="geometry" />
        </mxCell>
        <mxCell id="eNYLCKC9HYvspmPGT7P6-34" value="" style="endArrow=classic;html=1;exitX=0;exitY=0.5;exitDx=0;exitDy=0;entryX=1;entryY=0.5;entryDx=0;entryDy=0;" edge="1" parent="WIyWlLk6GJQsqaUBKTNV-1" source="eNYLCKC9HYvspmPGT7P6-12" target="eNYLCKC9HYvspmPGT7P6-32">
          <mxGeometry width="50" height="50" relative="1" as="geometry">
            <mxPoint x="340" y="349.65999999999997" as="sourcePoint" />
            <mxPoint x="340" y="350" as="targetPoint" />
          </mxGeometry>
        </mxCell>
        <mxCell id="eNYLCKC9HYvspmPGT7P6-39" value="" style="edgeStyle=orthogonalEdgeStyle;rounded=0;orthogonalLoop=1;jettySize=auto;html=1;" edge="1" parent="WIyWlLk6GJQsqaUBKTNV-1">
          <mxGeometry relative="1" as="geometry">
            <mxPoint x="340" y="349.58" as="sourcePoint" />
            <mxPoint x="368" y="349.58" as="targetPoint" />
          </mxGeometry>
        </mxCell>
        <mxCell id="eNYLCKC9HYvspmPGT7P6-40" value="" style="endArrow=classic;html=1;entryX=1;entryY=0.5;entryDx=0;entryDy=0;" edge="1" parent="WIyWlLk6GJQsqaUBKTNV-1" target="eNYLCKC9HYvspmPGT7P6-41">
          <mxGeometry width="50" height="50" relative="1" as="geometry">
            <mxPoint x="230.00000000000006" y="349.58" as="sourcePoint" />
            <mxPoint x="190" y="350" as="targetPoint" />
          </mxGeometry>
        </mxCell>
        <mxCell id="eNYLCKC9HYvspmPGT7P6-41" value="Favourite" style="rounded=1;whiteSpace=wrap;html=1;" vertex="1" parent="WIyWlLk6GJQsqaUBKTNV-1">
          <mxGeometry x="90" y="330" width="104" height="40" as="geometry" />
        </mxCell>
        <mxCell id="eNYLCKC9HYvspmPGT7P6-42" value="Chat" style="rounded=1;whiteSpace=wrap;html=1;" vertex="1" parent="WIyWlLk6GJQsqaUBKTNV-1">
          <mxGeometry x="90" y="390" width="104" height="40" as="geometry" />
        </mxCell>
        <mxCell id="eNYLCKC9HYvspmPGT7P6-43" value="Profile" style="rounded=1;whiteSpace=wrap;html=1;" vertex="1" parent="WIyWlLk6GJQsqaUBKTNV-1">
          <mxGeometry x="90" y="270" width="104" height="40" as="geometry" />
        </mxCell>
        <mxCell id="eNYLCKC9HYvspmPGT7P6-45" value="" style="curved=1;endArrow=classic;html=1;exitX=0.5;exitY=0;exitDx=0;exitDy=0;entryX=1;entryY=0.5;entryDx=0;entryDy=0;" edge="1" parent="WIyWlLk6GJQsqaUBKTNV-1" target="eNYLCKC9HYvspmPGT7P6-43">
          <mxGeometry width="50" height="50" relative="1" as="geometry">
            <mxPoint x="280" y="330" as="sourcePoint" />
            <mxPoint x="200" y="290" as="targetPoint" />
            <Array as="points">
              <mxPoint x="290" y="280" />
            </Array>
          </mxGeometry>
        </mxCell>
        <mxCell id="eNYLCKC9HYvspmPGT7P6-47" value="" style="curved=1;endArrow=classic;html=1;exitX=0.5;exitY=1;exitDx=0;exitDy=0;entryX=1;entryY=0.5;entryDx=0;entryDy=0;" edge="1" parent="WIyWlLk6GJQsqaUBKTNV-1" source="eNYLCKC9HYvspmPGT7P6-32">
          <mxGeometry width="50" height="50" relative="1" as="geometry">
            <mxPoint x="280" y="450" as="sourcePoint" />
            <mxPoint x="194" y="410" as="targetPoint" />
            <Array as="points">
              <mxPoint x="250" y="410" />
            </Array>
          </mxGeometry>
        </mxCell>
      </root>
    </mxGraphModel>
  </diagram>
</mxfile>
